<?xml version="1.0" standalone="no"?><!DOCTYPE svg PUBLIC "-//W3C//DTD SVG 1.1//EN" "http://www.w3.org/Graphics/SVG/1.1/DTD/svg11.dtd"><svg t="1561174895419" class="icon" viewBox="0 0 1024 1024" version="1.1" xmlns="http://www.w3.org/2000/svg" p-id="6427" width="24" height="24" xmlns:xlink="http://www.w3.org/1999/xlink"><defs><style type="text/css"></style></defs><path d="M895.021 522.535c-5.523 0-10-4.477-10-10 0-217.006-157.662-374.51-374.885-374.51S135.251 295.413 135.251 512.258c0 5.523-4.477 10-10 10s-10-4.477-10-10c0-57.135 10.435-111.161 31.015-160.576 19.742-47.404 48.26-89.352 84.761-124.678 72.614-70.276 171.737-108.979 279.109-108.979 107.354 0 206.479 38.753 279.113 109.121 36.499 35.36 65.015 77.338 84.758 124.771 20.58 49.442 31.014 103.481 31.014 160.618 0 5.523-4.477 10-10 10z" fill="#31c27c" p-id="6428"></path><path d="M862.063 521.211a7.5 7.5 0 0 1-7.5-7.5c0-175.429-154.509-318.15-344.427-318.15S165.71 338.283 165.71 513.711a7.5 7.5 0 0 1-15 0c0-45.046 9.533-88.742 28.335-129.875 18.14-39.685 44.096-75.314 77.148-105.899 67.861-62.794 158.046-97.376 253.943-97.376s186.083 34.582 253.943 97.376c33.052 30.584 59.009 66.214 77.148 105.899 18.802 41.133 28.335 84.83 28.335 129.875a7.498 7.498 0 0 1-7.499 7.5z" fill="#31c27c" p-id="6429"></path><path d="M129.094 703.883h-2.305c-22.546 0-40.888-18.342-40.888-40.888V543.146c0-22.546 18.342-40.889 40.888-40.889h2.305c22.546 0 40.889 18.343 40.889 40.889v119.849c-0.001 22.546-18.344 40.888-40.889 40.888z m-2.306-181.625c-11.518 0-20.888 9.371-20.888 20.889v119.849c0 11.518 9.371 20.888 20.888 20.888h2.305c11.518 0 20.889-9.371 20.889-20.888v-119.85c0-11.518-9.371-20.889-20.889-20.889h-2.305zM896.174 703.883h-2.305c-22.546 0-40.889-18.342-40.889-40.888V543.146c0-22.546 18.343-40.889 40.889-40.889h2.305c22.546 0 40.888 18.343 40.888 40.889v119.849c0 22.546-18.342 40.888-40.888 40.888z m-2.305-181.625c-11.518 0-20.889 9.371-20.889 20.889v119.849c0 11.518 9.371 20.888 20.889 20.888h2.305c11.518 0 20.888-9.371 20.888-20.888v-119.85c0-11.518-9.371-20.889-20.888-20.889h-2.305z" fill="#31c27c" p-id="6430"></path><path d="M223.994 777.837c-40.811 0-74.012-33.202-74.012-74.013V512.256c0-40.811 33.202-74.013 74.012-74.013s74.013 33.202 74.013 74.013v191.568c0 40.811-33.202 74.013-74.013 74.013z m0-319.594c-29.782 0-54.012 24.23-54.012 54.013v191.568c0 29.783 24.23 54.013 54.012 54.013 29.783 0 54.013-24.23 54.013-54.013V512.256c0-29.783-24.23-54.013-54.013-54.013zM797.132 777.837c-40.811 0-74.013-33.202-74.013-74.013V512.256c0-15.841 4.983-30.975 14.411-43.767 13.958-18.939 36.24-30.246 59.602-30.246 40.811 0 74.012 33.202 74.012 74.013v191.568c0 40.811-33.202 74.013-74.012 74.013z m0-319.594c-17.035 0-33.298 8.266-43.502 22.112-6.876 9.329-10.51 20.36-10.51 31.9v191.568c0 29.783 24.23 54.013 54.013 54.013 29.782 0 54.012-24.23 54.012-54.013V512.256c-0.001-29.783-24.231-54.013-54.013-54.013z" fill="#31c27c" p-id="6431"></path><path d="M158.21 581.081H95.9a5 5 0 0 1 0-10h62.31a5 5 0 0 1 0 10zM158.21 645H95.9a5 5 0 0 1 0-10h62.31a5 5 0 0 1 0 10zM926.176 581.081h-62.31a5 5 0 0 1 0-10h62.31a5 5 0 0 1 0 10zM926.176 645h-62.31a5 5 0 0 1 0-10h62.31a5 5 0 0 1 0 10z" fill="#31c27c" p-id="6432"></path></svg>